<!DOCTYPE svg PUBLIC "-//W3C//DTD SVG 1.1//EN" "http://www.w3.org/Graphics/SVG/1.1/DTD/svg11.dtd">
<!-- Uploaded to: SVG Repo, www.svgrepo.com, Transformed by: SVG Repo Mixer Tools -->
<svg width="800px" height="800px" viewBox="0 0 1024 1024" xmlns="http://www.w3.org/2000/svg" fill="#000000" transform="rotate(90)matrix(1, 0, 0, -1, 0, 0)">
<g id="SVGRepo_bgCarrier" stroke-width="0"/>
<g id="SVGRepo_tracerCarrier" stroke-linecap="round" stroke-linejoin="round"/>
<g id="SVGRepo_iconCarrier">
<path fill="#000000" d="M118.656 438.656a32 32 0 0 1 0-45.248L416 96l4.48-3.776A32 32 0 0 1 461.248 96l3.712 4.48a32.064 32.064 0 0 1-3.712 40.832L218.56 384H928a32 32 0 1 1 0 64H141.248a32 32 0 0 1-22.592-9.344zM64 608a32 32 0 0 1 32-32h786.752a32 32 0 0 1 22.656 54.592L608 928l-4.48 3.776a32.064 32.064 0 0 1-40.832-49.024L805.632 640H96a32 32 0 0 1-32-32z"/>
</g>
</svg>