<svg width="270" height="48" viewBox="0 0 270 48" fill="none" xmlns="http://www.w3.org/2000/svg">
<path d="M69.4997 47.0804V9.7846H63.9473V0.919643H84.4036V9.7846H78.8512V47.0804H69.4997Z" fill="#FB8D00"/>
<path d="M88.6394 47.0804V0.919643H102.985C105.376 0.919643 107.183 1.46168 108.405 2.54576C109.627 3.61235 110.442 5.11607 110.849 7.05692C111.274 8.98028 111.487 11.2446 111.487 13.8499C111.487 16.3677 111.159 18.3785 110.504 19.8823C109.866 21.386 108.653 22.4263 106.864 23.0033C108.334 23.3006 109.361 24.0262 109.946 25.1802C110.548 26.3168 110.849 27.7943 110.849 29.6127V47.0804H101.63V29.0095C101.63 27.6631 101.347 26.8326 100.78 26.5179C100.231 26.1856 99.3369 26.0195 98.0971 26.0195V47.0804H88.6394ZM98.1502 18.0201H100.408C101.701 18.0201 102.348 16.63 102.348 13.8499C102.348 12.0489 102.206 10.8687 101.923 10.3092C101.639 9.74963 101.108 9.46986 100.329 9.46986H98.1502V18.0201Z" fill="#FB8D00"/>
<path d="M114.925 47.0804L119.442 0.919643H135.302L139.739 47.0804H130.892L130.228 39.6317H124.596L124.011 47.0804H114.925ZM125.26 32.2617H129.511L127.465 8.78795H127.04L125.26 32.2617Z" fill="#FB8D00"/>
<path d="M144.24 47.0804V0.919643H153.857L158.161 23.0296V0.919643H167.194V47.0804H158.055L153.379 24V47.0804H144.24Z" fill="#FB8D00"/>
<path d="M184.075 47.5C179.807 47.5 176.725 46.4509 174.83 44.3527C172.953 42.2545 172.014 38.9148 172.014 34.3337V29.8225H181.259V35.5926C181.259 36.6592 181.418 37.4985 181.737 38.1105C182.074 38.705 182.649 39.0022 183.464 39.0022C184.314 39.0022 184.899 38.7574 185.217 38.2679C185.554 37.7783 185.722 36.974 185.722 35.8549C185.722 34.4386 185.581 33.2584 185.297 32.3142C185.014 31.3525 184.518 30.4433 183.809 29.5865C183.119 28.7122 182.153 27.6981 180.914 26.5441L176.716 22.6099C173.581 19.6899 172.014 16.3503 172.014 12.591C172.014 8.65681 172.935 5.65811 174.777 3.59487C176.636 1.53162 179.32 0.5 182.826 0.5C187.113 0.5 190.15 1.62779 191.939 3.88337C193.745 6.13895 194.649 9.56603 194.649 14.1646H185.138V10.9911C185.138 10.3616 184.952 9.87202 184.58 9.52232C184.226 9.17262 183.739 8.99777 183.119 8.99777C182.375 8.99777 181.826 9.20759 181.472 9.62723C181.135 10.0294 180.967 10.5539 180.967 11.2009C180.967 11.8478 181.144 12.5472 181.498 13.2991C181.852 14.051 182.552 14.9165 183.597 15.8956L188.99 21.01C190.07 22.0242 191.062 23.0995 191.965 24.236C192.869 25.3551 193.595 26.6665 194.144 28.1702C194.693 29.6564 194.967 31.4749 194.967 33.6256C194.967 37.9619 194.153 41.3627 192.523 43.8281C190.912 46.276 188.096 47.5 184.075 47.5Z" fill="#FB8D00"/>
<path d="M199.735 47.0804V0.919643H218.437V9.91574H209.139V17.2595H217.959V26.1507H209.139V47.0804H199.735Z" fill="#FB8D00"/>
<path d="M223.098 47.0804V0.919643H241.801V9.83705H232.609V18.8331H241.429V27.5145H232.609V38.0843H242.412V47.0804H223.098Z" fill="#FB8D00"/>
<path d="M247.153 47.0804V0.919643H261.499C263.89 0.919643 265.696 1.46168 266.918 2.54576C268.14 3.61235 268.955 5.11607 269.362 7.05692C269.787 8.98028 270 11.2446 270 13.8499C270 16.3677 269.672 18.3785 269.017 19.8823C268.379 21.386 267.166 22.4263 265.377 23.0033C266.847 23.3006 267.875 24.0262 268.459 25.1802C269.061 26.3168 269.362 27.7943 269.362 29.6127V47.0804H260.144V29.0095C260.144 27.6631 259.86 26.8326 259.294 26.5179C258.745 26.1856 257.85 26.0195 256.61 26.0195V47.0804H247.153ZM256.664 18.0201H258.922C260.215 18.0201 260.861 16.63 260.861 13.8499C260.861 12.0489 260.719 10.8687 260.436 10.3092C260.153 9.74963 259.621 9.46986 258.842 9.46986H256.664V18.0201Z" fill="#FB8D00"/>
<path d="M18.189 0.731499C12.5655 1.71549 7.8403 5.21155 5.27354 10.282C4.30517 12.2037 3.76849 14.0443 3.50014 16.3017C3.43014 16.95 3.38347 22.0088 3.38347 29.6955V42.0591H4.60852H5.8219L5.86856 29.1167C5.90357 16.4753 5.90357 16.1628 6.14857 15.1441C6.65026 12.9909 7.30362 11.4744 8.47033 9.72633C9.94038 7.53839 12.1338 5.63987 14.5139 4.49382C16.4273 3.56771 17.9907 3.1278 19.8924 2.96574L20.7675 2.89628V1.70391V0.499973L20.1024 0.511551C19.7291 0.511551 18.8774 0.615738 18.189 0.731499Z" fill="#FB8D00"/>
<path d="M21.8174 1.94705C21.8174 3.38252 21.8174 3.3941 22.1558 3.76454L22.4941 4.14656L34.7329 4.18129C43.0632 4.19286 47.1467 4.16971 47.5667 4.08868C48.7801 3.834 49.8651 2.79212 50.2151 1.5303C50.3201 1.18301 50.4018 0.800992 50.4018 0.696805C50.4018 0.511583 49.4334 0.500007 36.1096 0.500007H21.8174V1.94705Z" fill="#FB8D00"/>
<path d="M26.5426 14.901C26.0759 15.0978 25.9009 15.5145 25.9009 16.3596V17.0542H38.163H50.4251L50.3785 16.2439C50.3435 15.5493 50.2851 15.3872 50.0168 15.1094L49.7018 14.7968L38.2913 14.7737C29.0393 14.7505 26.8226 14.7737 26.5426 14.901Z" fill="#FB8D00"/>
<path d="M25.9009 22.6457V27.1952L26.1926 27.7856C26.5309 28.4454 27.1609 28.9548 27.791 29.0474C28.1993 29.1169 28.1993 29.1169 28.7593 28.1792C29.0627 27.6582 29.401 27.1836 29.5177 27.1257C29.646 27.0563 31.0694 27.01 32.9245 27.01C35.6196 27.01 36.1563 27.0331 36.3779 27.1952C36.658 27.392 36.7163 27.693 36.4946 27.9129C36.3896 28.0171 35.4912 28.0518 33.1812 28.0518H30.0077L29.7044 28.5612C29.541 28.8506 29.401 29.1053 29.401 29.14C29.401 29.1747 31.2444 29.2095 33.4845 29.2095H37.568V23.6528V18.0962H31.7344H25.9009V22.6457Z" fill="#FB8D00"/>
<path d="M38.6181 23.6528V29.2095H39.2014H39.7848L40.3331 28.2718C40.6248 27.7624 40.9865 27.2646 41.1148 27.172C41.3132 27.0447 41.9665 27.01 44.5916 27.01C47.6834 27.01 47.8467 27.0215 48.0684 27.2415C48.3368 27.5077 48.3484 27.5888 48.1617 27.855C48.0217 28.0287 47.6484 28.0518 44.8016 28.075L41.6048 28.1097L41.3365 28.5728C41.1965 28.8275 41.0681 29.0821 41.0681 29.1284C41.0681 29.1747 42.7365 29.2095 44.7783 29.1863C48.3368 29.1516 48.5001 29.14 48.9668 28.8969C49.5851 28.5612 50.1102 27.9245 50.2735 27.2878C50.3552 26.9752 50.4018 25.1925 50.4018 22.4489V18.0962H44.5099H38.6181V23.6528Z" fill="#FB8D00"/>
<path d="M22.4591 18.7211C21.7124 19.0568 21.234 19.8093 21.234 20.6775C21.234 21.0943 21.1874 21.1869 20.884 21.3605L20.534 21.5573V24.3241C20.534 27.6349 20.464 27.4728 21.8991 27.4728C23.2758 27.4728 23.2174 27.6233 23.2174 24.3009V21.5573L22.8674 21.3605C22.5874 21.1984 22.5174 21.0827 22.5174 20.747C22.5174 20.064 22.8791 19.8324 23.9525 19.8324H24.8508V19.1957V18.559H23.8358C23.2408 18.5706 22.6574 18.6285 22.4591 18.7211Z" fill="#FB8D00"/>
<path d="M51.4518 19.1957V19.8324H52.3152C53.3652 19.8324 53.6569 20.006 53.7503 20.7237C53.8086 21.1752 53.7969 21.2099 53.5052 21.291C53.3302 21.3257 53.1436 21.453 53.0852 21.5688C53.0152 21.6961 52.9686 22.9232 52.9686 24.3934C52.9686 27.5769 52.9219 27.4727 54.3686 27.4727C55.8153 27.4727 55.7687 27.5769 55.7687 24.4166C55.7687 22.9927 55.7337 21.7309 55.6987 21.6267C55.652 21.5225 55.5003 21.3952 55.3603 21.3373C55.1503 21.2562 55.092 21.1173 55.022 20.5501C54.9286 19.7166 54.602 19.1841 53.9603 18.8252C53.5753 18.6053 53.3186 18.559 52.4785 18.559H51.4518V19.1957Z" fill="#FB8D00"/>
<path d="M25.9009 32.8675V36.5025H28.0943C30.2294 36.5025 30.2994 36.5141 30.5327 36.7572C30.8477 37.1161 31.9678 39.0956 31.9678 39.304C31.9678 39.3966 31.8744 39.5587 31.7578 39.6629C31.5711 39.8365 31.1861 39.8597 28.7243 39.8597H25.9009V40.5079C25.9009 41.0636 25.9476 41.1909 26.2392 41.4919L26.5776 41.8276H38.023C46.33 41.8276 49.5384 41.7929 49.7484 41.7003C50.1218 41.5267 50.4018 40.9363 50.4018 40.3343V39.8597H47.6134C46.0733 39.8597 44.7316 39.8249 44.6382 39.7902C44.5332 39.7439 44.3932 39.6166 44.3232 39.4892C44.2299 39.304 44.3349 39.0377 44.9766 37.9496C45.3966 37.2318 45.8166 36.6067 45.9216 36.572C46.0266 36.5372 47.0767 36.5025 48.255 36.5025H50.4018V32.856C50.4018 30.8533 50.3551 29.2094 50.3085 29.2094C50.2501 29.2094 50.1101 29.3136 50.0051 29.4294C49.8884 29.5567 49.5268 29.7767 49.2001 29.9271L48.5934 30.1934L38.5014 30.2281C31.6411 30.2513 28.2226 30.2166 27.8143 30.1355C27.4876 30.0661 26.9159 29.8345 26.5542 29.6146L25.9009 29.221V32.8675ZM42.5965 36.6183C42.8415 36.7572 42.8882 37.1971 42.6782 37.4055C42.5732 37.5097 41.3948 37.5444 38.0697 37.5444H33.6012L33.4612 37.255C33.3562 37.0119 33.3678 36.9308 33.5428 36.734C33.7412 36.5141 33.9045 36.5025 38.058 36.5025C40.8114 36.5025 42.4448 36.5488 42.5965 36.6183ZM41.6281 38.9567C41.8381 39.1651 41.7915 39.605 41.5465 39.7439C41.4065 39.8134 40.0997 39.8597 38.1163 39.8597C35.1529 39.8597 34.8846 39.8481 34.6395 39.6397C34.3945 39.4545 34.3829 39.385 34.5112 39.1188L34.6512 38.8178H38.0697C40.5781 38.8178 41.5231 38.8525 41.6281 38.9567Z" fill="#FB8D00"/>
<path d="M25.9009 38.1812V38.8179H28.2343C29.5177 38.8179 30.5677 38.7947 30.5677 38.76C30.5677 38.7253 30.4044 38.4474 30.206 38.1233L29.8444 37.5445H27.8726H25.9009V38.1812Z" fill="#FB8D00"/>
<path d="M46.0616 38.1117C45.8749 38.4243 45.7349 38.7137 45.7349 38.7484C45.7349 38.7831 46.785 38.8179 48.0684 38.8179H50.4018V38.1812V37.5445H48.395H46.3766L46.0616 38.1117Z" fill="#FB8D00"/>
<path d="M27.7676 44.3281C27.7676 45.1268 27.826 45.8793 27.8843 46.0067C28.001 46.2266 27.9193 46.2266 23.7775 46.2266C20.1257 46.2266 19.4957 46.2498 19.274 46.4118C18.994 46.597 18.9473 46.9212 19.134 47.28C19.2623 47.5 19.589 47.5 38.0697 47.5C52.5485 47.5 56.9237 47.4653 57.0287 47.3611C57.2621 47.1296 57.2037 46.4813 56.947 46.3424C56.7954 46.2729 55.197 46.2266 52.5369 46.2266H48.3601L48.3951 44.548L48.4301 42.8695H46.61H44.7899L44.8249 44.548L44.8599 46.2266H38.058C31.3728 46.2266 31.2561 46.2266 31.3844 46.0067C31.4428 45.8793 31.5011 45.1268 31.5011 44.3281V42.8695H29.6344H27.7676V44.3281Z" fill="#FB8D00"/>
<path d="M0.828364 43.2977C0.175006 43.6218 0 44.0386 0 45.2657V46.3423H4.67851H9.35701L9.31035 45.2425C9.26368 44.0039 9.08867 43.6566 8.38865 43.3093C8.03863 43.1241 7.60695 43.1009 4.6085 43.1009C1.69173 43.1009 1.16671 43.1356 0.828364 43.2977Z" fill="#FB8D00"/>
</svg>
