<svg width="48" height="48" viewBox="0 0 48 48" fill="none" xmlns="http://www.w3.org/2000/svg">
<rect width="48" height="48" rx="24" fill="#419FD9"/>
<path fill-rule="evenodd" clip-rule="evenodd" d="M29.3356 35.8843C31.0131 36.6182 31.6422 35.0805 31.6422 35.0805L36.0806 12.7836C36.0456 11.2808 34.0186 12.1895 34.0186 12.1895L9.17051 21.94C9.17051 21.94 7.98227 22.3594 8.08712 23.0933C8.19196 23.8272 9.13556 24.1767 9.13556 24.1767L15.3913 26.2736C15.3913 26.2736 17.2785 32.4594 17.6629 33.6476C18.0124 34.8009 18.3269 34.8359 18.3269 34.8359C18.6764 34.9757 18.9909 34.731 18.9909 34.731L23.0449 31.0615L29.3356 35.8843ZM30.419 16.7327C30.419 16.7327 31.2927 16.2085 31.2577 16.7327C31.2577 16.7327 31.3975 16.8026 30.9432 17.2919C30.5238 17.7112 20.6335 26.5881 19.3055 27.7763C19.2006 27.8462 19.1307 27.951 19.1307 28.0908L18.7463 31.376C18.6764 31.7254 18.2221 31.7604 18.1172 31.4459L16.4747 26.0638C16.4048 25.8542 16.4747 25.6095 16.6844 25.4697L30.419 16.7327Z" fill="white"/>
</svg>
